<svg width="94" height="26" viewBox="0 0 94 26" fill="none" xmlns="http://www.w3.org/2000/svg">
<path d="M6.67188 25.2188C4.93099 25.2188 3.52734 24.6764 2.46094 23.5918C1.40365 22.5072 0.875 20.9896 0.875 19.0391V7.9375C0.875 5.60417 1.33529 3.81771 2.25586 2.57812C3.18555 1.33854 4.69401 0.71875 6.78125 0.71875C7.92057 0.71875 8.93229 0.928385 9.81641 1.34766C10.7096 1.76693 11.4115 2.39583 11.9219 3.23438C12.4323 4.0638 12.6875 5.11198 12.6875 6.37891V10.5352H7.90234V6.98047C7.90234 6.26042 7.8112 5.77734 7.62891 5.53125C7.44661 5.27604 7.16406 5.14844 6.78125 5.14844C6.33464 5.14844 6.03385 5.3125 5.87891 5.64062C5.72396 5.95964 5.64648 6.38802 5.64648 6.92578V18.9707C5.64648 19.6361 5.74219 20.1055 5.93359 20.3789C6.13411 20.6523 6.41667 20.7891 6.78125 20.7891C7.19141 20.7891 7.47852 20.6204 7.64258 20.2832C7.81576 19.946 7.90234 19.5085 7.90234 18.9707V14.6367H12.7422V19.1895C12.7422 21.304 12.209 22.8398 11.1426 23.7969C10.0762 24.7448 8.58594 25.2188 6.67188 25.2188ZM13.4192 25L15.7434 0.9375H23.9055L26.1888 25H21.636L21.2942 21.1172H18.3958L18.095 25H13.4192ZM18.7376 17.2754H20.9251L19.8723 5.03906H19.6536L18.7376 17.2754ZM29.0943 25V5.55859H26.2369V0.9375H36.7642V5.55859H33.9068V25H29.0943ZM43.4295 25.2188C41.6886 25.2188 40.285 24.6764 39.2186 23.5918C38.1613 22.5072 37.6327 20.9896 37.6327 19.0391V7.9375C37.6327 5.60417 38.0929 3.81771 39.0135 2.57812C39.9432 1.33854 41.4517 0.71875 43.5389 0.71875C44.6782 0.71875 45.6899 0.928385 46.5741 1.34766C47.4673 1.76693 48.1691 2.39583 48.6795 3.23438C49.1899 4.0638 49.4452 5.11198 49.4452 6.37891V10.5352H44.66V6.98047C44.66 6.26042 44.5689 5.77734 44.3866 5.53125C44.2043 5.27604 43.9217 5.14844 43.5389 5.14844C43.0923 5.14844 42.7915 5.3125 42.6366 5.64062C42.4816 5.95964 42.4041 6.38802 42.4041 6.92578V18.9707C42.4041 19.6361 42.4998 20.1055 42.6912 20.3789C42.8918 20.6523 43.1743 20.7891 43.5389 20.7891C43.9491 20.7891 44.2362 20.6204 44.4002 20.2832C44.5734 19.946 44.66 19.5085 44.66 18.9707V14.6367H49.4998V19.1895C49.4998 21.304 48.9666 22.8398 47.9002 23.7969C46.8338 24.7448 45.3436 25.2188 43.4295 25.2188ZM50.8331 25V0.9375H55.6183V9.53711H57.8878V0.9375H62.673V25H57.8878V14.0898H55.6183V25H50.8331ZM64.5258 25V0.9375H74.1508V5.58594H69.4203V10.2754H73.9594V14.8008H69.4203V20.3105H74.4652V25H64.5258ZM75.7848 25V0.9375H83.1677C84.3981 0.9375 85.3278 1.22005 85.9567 1.78516C86.5856 2.34115 87.0049 3.125 87.2145 4.13672C87.4333 5.13932 87.5427 6.31966 87.5427 7.67773C87.5427 8.99023 87.374 10.0384 87.0368 10.8223C86.7087 11.6061 86.0843 12.1484 85.1637 12.4492C85.9203 12.6042 86.4489 12.9824 86.7497 13.584C87.0596 14.1764 87.2145 14.9466 87.2145 15.8945V25H82.4704V15.5801C82.4704 14.8783 82.3246 14.4453 82.0329 14.2812C81.7503 14.1081 81.2901 14.0215 80.652 14.0215V25H75.7848ZM80.6794 9.85156H81.8415C82.5068 9.85156 82.8395 9.12695 82.8395 7.67773C82.8395 6.73893 82.7666 6.1237 82.6208 5.83203C82.4749 5.54036 82.2015 5.39453 81.8005 5.39453H80.6794V9.85156Z" fill="#1C1C1C"/>
<path d="M88.5341 24.9863V20.9121H93.4287V24.9863H88.5341Z" fill="#FC762A"/>
</svg>
